<svg id="Layer_1" data-name="Layer 1" xmlns="http://www.w3.org/2000/svg" viewBox="0 0 1194.85884 215.2"><defs><style>.cls-1{fill:#fff}</style></defs><title>treasure-logo</title><path class="cls-1" d="M208.2 0L104.1 60.1 0 0v8.7l102 58.9c.1.1.2.1.3.2l17.8 10.3c.1.1.2.1.3.2l36.1 20.8c.1 0 .1.1.2.1a.098.098 0 0 1 .1.1h.1a3.53 3.53 0 0 0 1.4.3 3.53 3.53 0 0 0 1.4-.3h.1a.098.098 0 0 0 .1-.1h.1c.1 0 .1-.1.2-.1L208 71.5v-8.7l-49.7 28.7-10.6-6.1L208 50.6v-8.7L140.3 81l-10.6-6.1 78.4-45.3v-8.7l-86 49.6-10.6-6.1L208 8.7V0zm-71.6 196.5l7.6-4.4v-86.9c0-.1 0-.1-.1-.2a.098.098 0 0 0-.1-.1c0-.1-.1-.1-.1-.2a.098.098 0 0 0-.1-.1c0-.1-.1-.1-.1-.2s-.1-.1-.1-.2l-.1-.1c0-.1-.1-.1-.1-.2l-.1-.1c0-.1-.1-.1-.1-.2l-.1-.1a.35.35 0 0 0-.2-.1l-.1-.1-.1-.1c-.1 0-.1-.1-.2-.1a.098.098 0 0 1-.1-.1L0 20.9v8.7l136.6 78.8z"/><path class="cls-1" d="M118.4 207l7.6-4.4v-86.9c0-.1 0-.1-.1-.2a.098.098 0 0 0-.1-.1c0-.1-.1-.1-.1-.2s0-.1-.1-.2c0-.1-.1-.1-.1-.2s-.1-.1-.1-.2l-.1-.1c0-.1-.1-.1-.1-.2l-.1-.1c0-.1-.1-.1-.2-.2l-.1-.1c-.1 0-.1-.1-.2-.1l-.1-.1a.35.35 0 0 0-.2-.1c-.1 0-.1-.1-.2-.1a.098.098 0 0 1-.1-.1L0 41.8v8.7L118.4 119z"/><path class="cls-1" d="M64.1 192.1l7.6 4.4v-83.6l10.6 6.1v83.6l7.6 4.4v-83.6l10.6 6.1V213l3.8 2.2 3.7-2.2v-86.9c0-.1 0-.1-.1-.2a.098.098 0 0 0-.1-.1c0-.1-.1-.1-.1-.2s0-.1-.1-.2c0-.1-.1-.1-.1-.2s-.1-.1-.1-.2l-.1-.1c0-.1-.1-.1-.1-.2l-.1-.1c0-.1-.1-.1-.1-.2l-.1-.1c-.1 0-.1-.1-.2-.1l-.1-.1-.1-.1c-.1 0-.1-.1-.2-.1a.098.098 0 0 1-.1-.1L0 62.8v8.7l64.1 37zM321.665 83.67v70.366h-13.97V83.67h-25.387V70.72h64.573V83.5h-25.216zm144.993 14.141c0 13.8-5.963 22.32-18.06 25.898l21.808 30.327h-17.72l-19.934-27.942h-18.4v27.942H400.38V70.721h31.01c12.778 0 21.808 2.215 27.26 6.474 5.282 4.26 8.008 11.075 8.008 20.616zm-18.742 11.756c2.897-2.385 4.26-6.474 4.26-11.926s-1.534-9.2-4.43-11.245-8.178-3.067-15.675-3.067h-17.72v29.987h17.55c7.837 0 13.29-1.193 16.015-3.749zM583.538 70.72v13.29H539.07v21.98h39.869v12.437H539.07v22.32h45.832v13.29h-59.973V70.72zm69.344 64.404l-8.348 18.912H629.54l36.631-83.315h14.993l36.632 83.315h-14.993l-8.349-18.912zm35.95-13.12L673.67 87.76l-15.164 34.246zm103.932-40.379a17.953 17.953 0 0 0-10.053 2.556 8.573 8.573 0 0 0-3.918 7.496 8.665 8.665 0 0 0 3.918 7.667c2.556 1.704 8.179 3.749 16.698 5.793s14.993 4.941 19.252 8.69 6.475 9.2 6.475 16.526a21.979 21.979 0 0 1-8.178 17.72c-5.452 4.6-12.608 6.815-21.639 6.815a50.274 50.274 0 0 1-34.587-13.46l8.86-10.563c8.349 7.326 17.209 10.904 26.239 10.904 4.6 0 8.178-1.022 10.733-2.897a8.876 8.876 0 0 0 3.92-7.667 8.434 8.434 0 0 0-3.75-7.496c-2.555-1.704-6.814-3.408-12.948-4.941a142.087 142.087 0 0 1-13.971-4.09 34.417 34.417 0 0 1-8.52-4.77c-4.94-3.748-7.325-9.371-7.325-17.208 0-7.667 2.726-13.63 8.348-17.89s12.608-6.304 20.786-6.304a51.356 51.356 0 0 1 15.846 2.555 43.557 43.557 0 0 1 13.63 7.327l-7.497 10.563a26.678 26.678 0 0 0-10.052-5.452 50.981 50.981 0 0 0-12.267-1.874zm106.657 53.329c3.749 4.43 9.03 6.644 15.505 6.644s11.756-2.214 15.504-6.644 5.793-10.564 5.793-18.06V70.72h13.971v46.684c0 11.926-3.237 21.297-9.882 27.771s-14.993 9.712-25.386 9.712-18.742-3.237-25.387-9.712-9.882-15.674-9.882-27.771V70.72h13.971v46.172c0 7.497 1.875 13.63 5.793 18.06zm177.365-37.143c0 13.8-5.963 22.32-18.06 25.898l21.808 30.327h-17.89l-19.934-27.942h-18.4v27.942h-13.972V70.721h31.01c12.778 0 21.808 2.215 27.26 6.474 5.282 4.26 8.178 11.075 8.178 20.616zm-18.742 11.756c2.897-2.385 4.26-6.474 4.26-11.926s-1.534-9.2-4.43-11.245-8.178-3.067-15.675-3.067h-17.89v29.987h17.55c7.837 0 13.289-1.193 16.185-3.749zm135.452-38.847v13.29h-44.47v21.98h39.87v12.437h-39.87v22.32h45.833v13.29h-59.974V70.72z"/></svg>