<svg id="Layer_1" xmlns="http://www.w3.org/2000/svg" viewBox="0 0 208 215.2"><style>.st0{fill:#FFFFFF;}</style><title>treasure-logo</title><path class="st0" d="M208.2 0L104.1 60.1 0 0v8.7l102 58.9c.1.1.2.1.3.2l17.8 10.3c.1.1.2.1.3.2l36.1 20.8c.1 0 .1.1.2.1s.1 0 .1.1h.1c.4.2.9.3 1.4.3.5 0 1-.1 1.4-.3h.1c.1 0 .1 0 .1-.1h.1c.1 0 .1-.1.2-.1L208 71.5v-8.7l-49.7 28.7-10.6-6.1L208 50.6v-8.7L140.3 81l-10.6-6.1 78.4-45.3v-8.7l-86 49.6-10.6-6.1L208 8.7V0h.2zm-71.6 196.5l7.6-4.4v-86.9c0-.1 0-.1-.1-.2 0-.1 0-.1-.1-.1 0-.1-.1-.1-.1-.2s0-.1-.1-.1c0-.1-.1-.1-.1-.2s-.1-.1-.1-.2l-.1-.1c0-.1-.1-.1-.1-.2l-.1-.1c0-.1-.1-.1-.1-.2l-.1-.1c-.1-.1-.1-.1-.2-.1l-.1-.1-.1-.1c-.1 0-.1-.1-.2-.1s-.1 0-.1-.1L0 20.9v8.7l136.6 78.8v88.1z"/><path class="st0" d="M118.4 207l7.6-4.4v-86.9c0-.1 0-.1-.1-.2 0-.1 0-.1-.1-.1 0-.1-.1-.1-.1-.2s0-.1-.1-.2c0-.1-.1-.1-.1-.2s-.1-.1-.1-.2l-.1-.1c0-.1-.1-.1-.1-.2l-.1-.1c0-.1-.1-.1-.2-.2l-.1-.1c-.1 0-.1-.1-.2-.1l-.1-.1c-.1-.1-.1-.1-.2-.1s-.1-.1-.2-.1-.1 0-.1-.1L0 41.8v8.7L118.4 119v88z"/><path class="st0" d="M64.1 192.1l7.6 4.4v-83.6l10.6 6.1v83.6l7.6 4.4v-83.6l10.6 6.1V213l3.8 2.2 3.7-2.2v-86.9c0-.1 0-.1-.1-.2 0-.1 0-.1-.1-.1 0-.1-.1-.1-.1-.2s0-.1-.1-.2c0-.1-.1-.1-.1-.2s-.1-.1-.1-.2l-.1-.1c0-.1-.1-.1-.1-.2l-.1-.1c0-.1-.1-.1-.1-.2l-.1-.1c-.1 0-.1-.1-.2-.1l-.1-.1-.1-.1c-.1 0-.1-.1-.2-.1s-.1 0-.1-.1L0 62.8v8.7l64.1 37v83.6z"/></svg>