<svg id="Layer_1" xmlns="http://www.w3.org/2000/svg" viewBox="0 0 912.9 215.2"><style>.st0{fill:#000000;}</style><title>treasure-logo</title><path class="st0" d="M39.7 79v70.4h-14V79H.3V66h64.6v12.8H39.7v.2zm145 14.1c0 13.8-6 22.3-18.1 25.9l21.8 30.3h-17.7l-19.9-27.9h-18.4v27.9h-14V66h31c12.8 0 21.8 2.2 27.3 6.5 5.2 4.2 8 11.1 8 20.6zm-18.8 11.8c2.9-2.4 4.3-6.5 4.3-11.9s-1.5-9.2-4.4-11.2-8.2-3.1-15.7-3.1h-17.7v30h17.5c7.8-.1 13.3-1.3 16-3.8zM301.5 66v13.3H257v22h39.9v12.4H257V136h45.8v13.3h-60V66h58.7zm69.4 64.4l-8.3 18.9h-15L384.2 66h15l36.6 83.3h-15l-8.3-18.9h-41.6zm35.9-13.1l-15.2-34.2-15.2 34.2h30.4zm104-40.4c-3.5-.2-7 .7-10.1 2.6-2.5 1.6-4 4.5-3.9 7.5-.1 3.1 1.3 6 3.9 7.7 2.6 1.7 8.2 3.7 16.7 5.8s15 4.9 19.3 8.7 6.5 9.2 6.5 16.5c.2 6.9-2.8 13.4-8.2 17.7-5.5 4.6-12.6 6.8-21.6 6.8-12.8.1-25.2-4.7-34.6-13.5l8.9-10.6c8.3 7.3 17.2 10.9 26.2 10.9 4.6 0 8.2-1 10.7-2.9 2.5-1.7 4-4.6 3.9-7.7.2-3-1.3-5.8-3.8-7.5-2.6-1.7-6.8-3.4-12.9-4.9-4.7-1.1-9.4-2.5-14-4.1-3.1-1.2-5.9-2.8-8.5-4.8-4.9-3.7-7.3-9.4-7.3-17.2 0-7.7 2.7-13.6 8.3-17.9s12.6-6.3 20.8-6.3c5.4 0 10.7.9 15.8 2.6 4.9 1.6 9.6 4.1 13.6 7.3L533 84.2c-2.9-2.5-6.3-4.4-10.1-5.5-3.9-1-8-1.7-12.1-1.8zm106.6 53.3c3.7 4.4 9 6.6 15.5 6.6s11.8-2.2 15.5-6.6 5.8-10.6 5.8-18.1V66h14v46.7c0 11.9-3.2 21.3-9.9 27.8s-15 9.7-25.4 9.7-18.7-3.2-25.4-9.7-9.9-15.7-9.9-27.8V66h14v46.2c0 7.5 1.9 13.6 5.8 18zm177.4-37.1c0 13.8-6 22.3-18.1 25.9l21.8 30.3h-17.9l-19.9-27.9h-18.4v27.9h-14V66h31c12.8 0 21.8 2.2 27.3 6.5 5.3 4.2 8.2 11.1 8.2 20.6zM776 104.9c2.9-2.4 4.3-6.5 4.3-11.9s-1.5-9.2-4.4-11.2-8.2-3.1-15.7-3.1h-17.9v30h17.6c7.8-.1 13.2-1.3 16.1-3.8zM911.5 66v13.3H867v22h39.9v12.4H867V136h45.8v13.3h-60V66h58.7z"/></svg>